<svg xmlns="http://www.w3.org/2000/svg" aria-label="TikTok" width="35" height="34" viewBox="0 0 35 34" fill="none">
  <path d="M17.3369 0C7.94801 0 0.336914 7.6111 0.336914 17C0.336914 26.3889 7.94801 34 17.3369 34C26.7258 34 34.3369 26.3889 34.3369 17C34.3369 7.6111 26.7258 0 17.3369 0ZM24.6698 15.3642H24.6669C24.5264 15.3772 24.3858 15.3845 24.2453 15.3859C22.7022 15.3859 21.2634 14.6079 20.4173 13.3169V20.3615C20.4173 23.2375 18.086 25.5688 15.2114 25.5688C12.3367 25.5688 10.004 23.2375 10.004 20.3615C10.004 17.4854 12.3353 15.1555 15.2099 15.1555C15.3186 15.1555 15.4244 15.1657 15.5316 15.1715V17.7375C15.4244 17.7245 15.32 17.7056 15.2099 17.7056C13.7422 17.7056 12.5526 18.8952 12.5526 20.3629C12.5526 21.8306 13.7422 23.0202 15.2099 23.0202C16.6777 23.0202 17.9744 21.864 17.9744 20.3962L18.0005 8.43263H20.455C20.6868 10.6335 22.4617 12.3534 24.6684 12.5142V15.3642H24.6698Z" fill="white"></path>
</svg>