<svg xmlns="http://www.w3.org/2000/svg" aria-label="Twitter" width="34" height="34" viewBox="0 0 34 34" fill="none">
  <path d="M16.8895 0C7.56648 0 0 7.56648 0 16.8895C0 26.2124 7.56648 33.7789 16.8895 33.7789C26.2124 33.7789 33.7789 26.2124 33.7789 16.8895C33.7789 7.56648 26.2124 0 16.8895 0ZM24.3884 13.9845C24.3884 14.1196 24.3884 14.3223 24.3884 14.4574C24.3884 19.3215 20.6727 24.9288 13.9169 24.9288C11.8226 24.9288 9.86345 24.3208 8.24206 23.3075C8.51229 23.375 8.85008 23.375 9.12031 23.375C10.8768 23.375 12.4306 22.767 13.7142 21.8212C12.0929 21.7536 10.7417 20.7403 10.2688 19.254C10.4715 19.3215 10.7417 19.3215 10.9444 19.3215C11.2822 19.3215 11.62 19.254 11.8902 19.1864C10.2012 18.8486 8.91764 17.3624 8.91764 15.5383C8.91764 15.5383 8.91764 15.5383 8.91764 15.4707C9.39054 15.741 9.99856 15.9437 10.6066 15.9437C9.59321 15.2681 8.98519 14.1871 8.98519 12.9035C8.98519 12.228 9.18787 11.6199 9.4581 11.0119C11.2822 13.2413 13.9845 14.7276 17.0246 14.8627C16.957 14.5925 16.957 14.3223 16.957 14.052C16.957 12.0253 18.5784 10.3364 20.6727 10.3364C21.7536 10.3364 22.6994 10.8093 23.375 11.4848C24.1857 11.3497 24.9964 11.0119 25.7395 10.6066C25.4693 11.4848 24.8613 12.1604 24.1182 12.6333C24.8613 12.5658 25.6044 12.3631 26.2124 12.0253C25.7395 12.836 25.1315 13.5116 24.3884 13.9845Z" fill="white"></path>
</svg>