<svg xmlns="http://www.w3.org/2000/svg" aria-label="Youtube" width="34" height="34" viewBox="0 0 34 34" fill="none">
  <path d="M14.7952 19.9971L20.2674 16.8894L14.8627 13.7817L14.7952 19.9971Z" fill="white"></path>
  <path d="M16.8895 0C7.56648 0 0 7.56648 0 16.8895C0 26.2124 7.56648 33.7789 16.8895 33.7789C26.2124 33.7789 33.7789 26.2124 33.7789 16.8895C33.7789 7.56648 26.2124 0 16.8895 0ZM27.3609 16.957C27.3609 16.957 27.3609 20.3349 26.888 21.9563C26.6178 22.8346 25.9422 23.5777 25.064 23.7804C23.4426 24.1857 16.8895 24.1857 16.8895 24.1857C16.8895 24.1857 10.4039 24.1857 8.71496 23.7128C7.83671 23.4426 7.09358 22.767 6.8909 21.8887C6.48556 20.2674 6.48556 16.8895 6.48556 16.8895C6.48556 16.8895 6.48556 13.5116 6.95846 11.8902C7.22869 11.0119 7.90427 10.2688 8.78252 10.0661C10.4039 9.66077 16.957 9.66077 16.957 9.66077C16.957 9.66077 23.5101 9.66077 25.1315 10.1337C26.0098 10.4039 26.7529 11.0795 26.9556 11.9577C27.3609 13.5116 27.3609 16.957 27.3609 16.957Z" fill="white"></path>
</svg>